<svg xmlns:xlink="http://www.w3.org/1999/xlink" xmlns="http://www.w3.org/2000/svg" class="icon list__icon" width="75"  height="75" ><defs><symbol viewBox="0 0 75 75" id="english_books" xmlns="http://www.w3.org/2000/svg"><g fill="none" fill-rule="evenodd"><circle fill="#46877F" cx="37.5" cy="37.5" r="37.5"></circle><path d="M46.984 19c5.86 0 10.078 2.11 10.078 2.11.209.208.417.416.46.789l.01.148v2.812h.937c1.58 0 2.725 1.087 2.807 2.633l.005.18v25.312c0 1.58-1.086 2.725-2.632 2.808l-.18.005H39.25c-.469.469-1.172.937-2.11.937-.87 0-1.538-.202-2.005-.794l-.104-.143H15.813c-1.58 0-2.726-1.087-2.808-2.632l-.005-.18V27.671c0-1.58 1.087-2.725 2.632-2.808l.18-.005h.938v-2.925c.003-.395.04-.61.469-.825 0-.234 4.218-2.109 10.078-2.109 4.922 0 8.437 1.406 9.844 1.875C38.313 20.406 42.063 19 46.984 19zm-.528 30.844c4.143 0 7.345.654 9.155 1.33l.195.076V23.125c-1.263-.469-4.801-1.64-9.35-1.64-4.548 0-8.086.937-9.35 1.64-1.25-.475-4.744-1.64-9.231-1.64-4.364 0-7.787.88-9.13 1.575l-.12.065V51.25c1.75-.469 5-1.406 9.25-1.406 4.098 0 7.267.654 9.057 1.33l.174.069c.007.005.01.005.011.004l-.011-.004v-.001l.019.008c1.773-.475 5.05-1.406 9.331-1.406zm-3.69-21.938v1.875h-8.438v5.157h7.734v1.874h-7.734v5.391h8.438v1.875H31.28V27.906h11.485z" fill="#FFFFFF" fill-rule="nonzero"></path></g></symbol></defs>
<use xlink:href="#english_books"></use>
</svg>