<svg xmlns:xlink="http://www.w3.org/1999/xlink" xmlns="http://www.w3.org/2000/svg" class="icon list__icon" width="75"  height="75" ><defs><symbol viewBox="0 0 75 75" id="monitors_projectors" xmlns="http://www.w3.org/2000/svg"><g fill="none"><circle fill="#A77F0E" cx="37.5" cy="37.5" r="37.5"></circle><path d="M51.426 20a4 4 0 013.995 3.8l.005.2-.001 1.999L52.17 26v-2.736H14.064v22.27H52.17v-3.407l3.255-.001v2.462a4 4 0 01-3.8 3.995l-.2.005H34.8v3.177h7.934v3.176h-19.04v-3.176h7.933v-3.177H15a4 4 0 01-3.995-3.8l-.005-.2V24a4 4 0 013.8-3.995L15 20h36.426zm-3.7 21.834a.8.8 0 01.698.38.746.746 0 010 .775.796.796 0 01-.591.375l-.106.006H44.55a.8.8 0 01-.697-.381.746.746 0 010-.774.796.796 0 01.59-.376l.107-.005h3.177zm14.17 0a.8.8 0 01.698.38.746.746 0 010 .775.796.796 0 01-.591.375l-.106.006H58.72a.8.8 0 01-.697-.381.746.746 0 010-.774.796.796 0 01.591-.376l.106-.005h3.177zm1.534-14.207c.82 0 1.491.632 1.564 1.44l.006.144v9.503c0 .827-.627 1.505-1.427 1.578l-.143.006H43.017c-.82 0-1.492-.632-1.564-1.44l-.006-.144v-9.503c0-.827.627-1.505 1.427-1.578l.143-.006H63.43zm-4.653 1.536a4.697 4.697 0 00-4.692 4.704c0 2.597 2.1 4.703 4.692 4.703a4.697 4.697 0 004.691-4.703c0-2.598-2.1-4.704-4.691-4.704zm0 1.536a3.164 3.164 0 013.16 3.168 3.164 3.164 0 01-3.16 3.167 3.164 3.164 0 01-3.16-3.167 3.164 3.164 0 013.16-3.168zm-8.734 4.031h-5.511a.778.778 0 00-.787.768c0 .389.296.71.68.761l.107.007h5.51a.778.778 0 00.788-.768.778.778 0 00-.787-.768zm0-3.071h-5.511a.778.778 0 00-.787.768c0 .388.296.71.68.76l.107.008h5.51a.778.778 0 00.788-.768.778.778 0 00-.787-.768z" fill="#FFFFFF"></path></g></symbol></defs>
<use xlink:href="#monitors_projectors"></use>
</svg>