<svg xmlns:xlink="http://www.w3.org/1999/xlink" xmlns="http://www.w3.org/2000/svg" class="icon list__icon" width="75"  height="75" ><defs><symbol viewBox="0 0 75 75" id="computers_tablets" xmlns="http://www.w3.org/2000/svg"><g fill="none"><circle fill="#A77F0E" cx="37.5" cy="37.5" r="37.5"></circle><path d="M60.32 32.752c1.478 0 2.68 1.21 2.68 2.7v18.626c0 1.488-1.202 2.699-2.68 2.699H47.739c-1.195 0-2.862-1.096-2.862-2.883V35.635c0-1.509 1.328-2.883 2.79-2.883zm-6.382 21.496a.632.632 0 100 1.265.632.632 0 000-1.265zm6.955-18.546H47.405v17.703h13.488V35.702zM51.29 18c2.513 0 4.596 2.005 4.71 4.483l.004.214v7.526h-3.097v-7.54c0-.837-.61-1.492-1.429-1.562l-.146-.006H19.816c-.841 0-1.5.608-1.57 1.423l-.006.145v20.395c0 .837.612 1.492 1.43 1.563l.146.006 22.531-.001v6.23H16.715a4.707 4.707 0 01-4.71-4.482L12 46.18h4.38a4.667 4.667 0 01-1.23-2.875l-.007-.256V22.697c0-2.504 2.013-4.579 4.5-4.692l.215-.005H51.29z" fill="#FFFFFF"></path></g></symbol></defs>
<use xlink:href="#computers_tablets"></use>
</svg>