<svg xmlns:xlink="http://www.w3.org/1999/xlink" xmlns="http://www.w3.org/2000/svg" class="icon list__icon" width="75"  height="75" ><defs><symbol viewBox="0 0 75 75" id="school_supplies" xmlns="http://www.w3.org/2000/svg"><g fill="none" fill-rule="evenodd"><circle fill="#222D5A" cx="37.5" cy="37.5" r="37.5"></circle><path d="M19.578 43.786l-2.578 15c0 .468 0 .937.469 1.171.234.235.703.47 1.172.235l14.53-4.688c.235 0 .47-.234.704-.468l22.266-25.782c2.343-2.812 2.109-6.797-.703-9.14l-3.985-3.516c-2.812-2.344-6.797-2.11-9.14.703L20.047 43.082c-.235.235-.469.47-.469.704zm29.766-18.75l3.047 2.812-20.625 23.906-3.047-2.812 20.625-23.906zm-4.922-3.985l3.047 2.813L26.844 47.77l-3.047-2.813 20.625-23.906zM30.125 53.864l-9.14 3.047-1.407-1.407 2.11-8.906 8.437 7.266z" fill="#FFFFFF" fill-rule="nonzero"></path></g></symbol></defs>
<use xlink:href="#school_supplies"></use>
</svg>