<svg xmlns:xlink="http://www.w3.org/1999/xlink" xmlns="http://www.w3.org/2000/svg" class="icon list__icon" width="75"  height="75" ><defs><symbol viewBox="0 0 75 75" id="office" xmlns="http://www.w3.org/2000/svg"><g fill="none" fill-rule="evenodd"><circle fill="#BB1E10" cx="37.5" cy="37.5" r="37.5"></circle><path d="M56.078 27.438a2.601 2.601 0 012.578 2.578v.234l-4.218 22.969a2.601 2.601 0 01-2.579 2.578H18.58A2.601 2.601 0 0116 53.219l.035-.192c.41-2.235 1.239-6.534 2.07-10.833l.146-.759c1.122-5.807 2.202-11.394 2.202-11.654.469-1.64 1.64-2.11 2.813-2.11v-.233zM27.953 19c.938 0 1.64 1.172 2.344 2.11.234.234.703 1.171.937 1.171H53.5a2.601 2.601 0 012.578 2.578v.938H23.266c-2.344 0-3.985 1.406-4.453 3.515-.021.042-.05.137-.088.28l-.05.197c-.36 1.492-1.237 6.117-2.108 10.907l-.127.702c-.149.82-.296 1.64-.44 2.446V21.578A2.601 2.601 0 0118.578 19z" fill="#FFFFFF" fill-rule="nonzero"></path></g></symbol></defs>
<use xlink:href="#office"></use>
</svg>