<svg xmlns:xlink="http://www.w3.org/1999/xlink" xmlns="http://www.w3.org/2000/svg" class="icon list__icon" width="75"  height="75" ><defs><symbol viewBox="0 0 75 75" id="speakers_headsets_gadgets" xmlns="http://www.w3.org/2000/svg"><g fill="none"><circle fill="#BC4077" cx="37.5" cy="37.5" r="37.5"></circle><path d="M49.488 24.531c1.47 0 2.68 1.206 2.68 2.67v33.821c0 1.464-1.21 2.67-2.68 2.67H26.26c-1.47 0-2.68-1.206-2.68-2.67v-33.82c0-1.465 1.21-2.67 2.68-2.67zm0 1.78H26.26a.878.878 0 00-.893.89v33.821c0 .503.389.89.893.89h23.23a.878.878 0 00.893-.89v-33.82a.878.878 0 00-.894-.89zm-11.614 16.02c4.923 0 8.934 3.996 8.934 8.901 0 4.905-4.01 8.9-8.934 8.9-4.924 0-8.934-3.995-8.934-8.9s4.01-8.9 8.934-8.9zm-9.828 16.021c.494 0 .894.399.894.89 0 .492-.4.89-.894.89a.892.892 0 01-.893-.89c0-.491.4-.89.893-.89zm19.655 0c.494 0 .894.399.894.89 0 .492-.4.89-.894.89a.892.892 0 01-.893-.89c0-.491.4-.89.893-.89zm-9.827-14.24c-3.958 0-7.147 3.177-7.147 7.12s3.189 7.12 7.147 7.12 7.147-3.177 7.147-7.12-3.19-7.12-7.147-7.12zm0 3.56c1.963 0 3.573 1.604 3.573 3.56s-1.61 3.56-3.573 3.56c-1.963 0-3.574-1.604-3.574-3.56s1.61-3.56 3.574-3.56zm0 1.78a1.77 1.77 0 00-1.787 1.78c0 .994.79 1.78 1.787 1.78a1.77 1.77 0 001.787-1.78c0-.994-.79-1.78-1.787-1.78zM38 12c10.053 0 18.343 7.628 19.339 17.383a3.267 3.267 0 012.092 2.084c1.54.307 2.877 1.358 3.814 2.757C64.363 35.893 65 38.091 65 40.511c0 2.421-.637 4.62-1.755 6.288-.937 1.4-2.274 2.45-3.814 2.757-.422 1.294-1.637 2.252-3.071 2.252-1.776 0-3.24-1.458-3.24-3.227V32.442c0-1.336.848-2.471 2.025-2.959C54.2 20.86 46.91 14.152 38 14.152s-16.2 6.707-17.145 15.331c1.177.488 2.025 1.623 2.025 2.96V48.58c0 1.769-1.464 3.227-3.24 3.227-1.434 0-2.65-.958-3.071-2.252-1.54-.307-2.877-1.358-3.814-2.757C11.637 45.13 11 42.932 11 40.51c0-2.42.637-4.618 1.755-6.287.937-1.4 2.274-2.45 3.814-2.757a3.267 3.267 0 012.092-2.084C19.657 19.628 27.947 12 38 12zM19.64 31.366c-.608 0-1.08.47-1.08 1.076v16.139c0 .605.473 1.075 1.08 1.075.607 0 1.08-.47 1.08-1.075V32.442c0-.605-.473-1.076-1.08-1.076zm36.72 0c-.608 0-1.08.47-1.08 1.076v16.139c0 .605.472 1.075 1.08 1.075.608 0 1.08-.47 1.08-1.075V32.442c0-.605-.472-1.076-1.08-1.076zM16.4 33.753c-.67.286-1.308.828-1.856 1.648-.836 1.248-1.384 3.076-1.384 5.11 0 2.034.548 3.863 1.384 5.11.548.82 1.185 1.363 1.856 1.648zm43.2 0V47.27c.67-.285 1.308-.828 1.856-1.647.836-1.248 1.384-3.077 1.384-5.11 0-2.035-.548-3.863-1.384-5.111-.548-.82-1.185-1.362-1.856-1.648zm-21.726-5.661c2.95 0 5.36 2.4 5.36 5.34 0 2.938-2.41 5.34-5.36 5.34s-5.36-2.402-5.36-5.34c0-2.94 2.41-5.34 5.36-5.34zm0 1.78a3.553 3.553 0 00-3.574 3.56c0 1.976 1.59 3.56 3.574 3.56a3.553 3.553 0 003.573-3.56 3.553 3.553 0 00-3.573-3.56zm0 1.78c.987 0 1.787.797 1.787 1.78s-.8 1.78-1.787 1.78a1.783 1.783 0 01-1.787-1.78c0-.983.8-1.78 1.787-1.78zm-9.828-3.56c.494 0 .894.398.894.89 0 .491-.4.89-.894.89a.892.892 0 01-.893-.89c0-.492.4-.89.893-.89zm19.655 0c.494 0 .894.398.894.89 0 .491-.4.89-.894.89a.892.892 0 01-.893-.89c0-.492.4-.89.893-.89z" fill="#FFFFFF"></path></g></symbol></defs>
<use xlink:href="#speakers_headsets_gadgets"></use>
</svg>