<svg xmlns:xlink="http://www.w3.org/1999/xlink" xmlns="http://www.w3.org/2000/svg" class="icon list__icon" width="75"  height="75" ><defs><symbol viewBox="0 0 75 75" id="printers_scanners" xmlns="http://www.w3.org/2000/svg"><g fill="none"><circle fill="#A77F0E" cx="37.5" cy="37.5" r="37.5"></circle><path d="M25.528 18v10.38h-4.275c-1.415 0-2.566 1.164-2.566 2.594v9.515h5.131v-3.46h27.364v3.46h5.13v-9.515c0-1.43-1.15-2.595-2.565-2.595h-4.275V18H25.528zm1.76 1.606h20.424V29.78H27.287V19.606zm-10.43 22.489a.862.862 0 00-.704.362.848.848 0 00-.104.779l3.444 9.373c.889 2.358 3.148 3.943 5.62 3.943h24.77c2.51 0 4.718-1.547 5.623-3.948l3.44-9.368a.845.845 0 00-.104-.78.862.862 0 00-.703-.361H16.859z" fill="#FFFFFF"></path></g></symbol></defs>
<use xlink:href="#printers_scanners"></use>
</svg>