<svg xmlns:xlink="http://www.w3.org/1999/xlink" data-v-2aba227d="" width="27" height="27" viewBox="0 0 27 27" fill="none" xmlns="http://www.w3.org/2000/svg"><path data-v-2aba227d="" d="M13.4619 9.39897C14.6312 9.39897 15.5878 8.44233 15.5878 7.27309C15.5878 6.10386 14.6312 5.14722 13.4619 5.14722C12.2927 5.14722 11.3361 6.10386 11.3361 7.27309C11.3361 8.44233 12.2927 9.39897 13.4619 9.39897ZM13.4619 11.5248C12.2927 11.5248 11.3361 12.4815 11.3361 13.6507C11.3361 14.82 12.2927 15.7766 13.4619 15.7766C14.6312 15.7766 15.5878 14.82 15.5878 13.6507C15.5878 12.4815 14.6312 11.5248 13.4619 11.5248ZM13.4619 17.9025C12.2927 17.9025 11.3361 18.8591 11.3361 20.0284C11.3361 21.1976 12.2927 22.1542 13.4619 22.1542C14.6312 22.1542 15.5878 21.1976 15.5878 20.0284C15.5878 18.8591 14.6312 17.9025 13.4619 17.9025Z" fill="#4B5563"></path></svg>