<svg xmlns:xlink="http://www.w3.org/1999/xlink" xmlns="http://www.w3.org/2000/svg" class="icon list__icon" width="75"  height="75" ><defs><symbol viewBox="0 0 75 75" id="kids" xmlns="http://www.w3.org/2000/svg"><g fill="none" fill-rule="evenodd"><circle fill="#00387B" cx="37.5" cy="37.5" r="37.5"></circle><path d="M37.219 18c-.703 0-1.172 0-1.64.234l-13.36 5.391c-.938.469-.938 1.64 0 2.11l14.297 6.093c.234.235.703.235.937.235.234 0 .703 0 .938-.235l14.297-6.094c.937-.468.937-1.875 0-2.109l-13.36-5.39C38.391 18 37.688 18 37.218 18zM19.406 28.313c-.703 0-1.406.703-1.406 1.64v15.938c0 1.875.938 3.515 2.578 4.218 0 0 7.266 3.75 11.719 5.86 1.406.703 3.047-.469 3.047-1.875V37.219c0-1.407-.703-2.578-2.11-3.047l-13.359-5.625c0-.235-.234-.235-.469-.235zm35.39 0c-.233 0-.468 0-.702.234l-13.36 5.625c-1.172.469-2.109 1.64-2.109 3.047v16.875c0 1.64 1.64 2.578 3.047 1.875 4.453-2.11 11.719-5.86 11.719-5.86 1.64-.937 2.578-2.578 2.578-4.218V29.953c.234-.937-.469-1.406-1.172-1.64zm-30 7.03l2.345 1.173 3.515 13.828-2.343-1.172-.704-3.281-3.515-1.641-.703 2.578-2.11-.937 3.516-10.547zm1.173 3.048l-1.172 4.218 2.578 1.172-1.406-5.39zm27.422-4.22c.703 1.173 1.172 2.579 1.172 3.282 0 .938-.235 2.578-.938 3.75-1.64 1.64-3.984 3.281-6.094 3.984-1.875.704-3.047.704-3.984.47-.938-.47-1.64-1.407-1.64-3.048 0-1.172.234-2.343.702-3.75h.703c-.234.703-.234 1.172-.234 1.641 0 2.11 1.406 3.281 5.156 1.875 1.875-.703 4.688-2.344 5.391-3.047-.234-.703-.703-1.406-1.172-2.344 0-.937.234-1.875.938-2.812zM48 46.829c.703.234 1.406.703 1.875.938-.234.703-.703 1.64-1.172 2.343-.703-.468-1.172-.703-1.875-.937L48 46.828z" fill="#FFFFFF" fill-rule="nonzero"></path></g></symbol></defs>
<use xlink:href="#kids"></use>
</svg>