<svg xmlns:xlink="http://www.w3.org/1999/xlink" xmlns="http://www.w3.org/2000/svg" class="icon list__icon" width="75"  height="75" ><defs><symbol viewBox="0 0 75 75" id="arts" xmlns="http://www.w3.org/2000/svg"><g fill="none" fill-rule="evenodd"><circle fill="#979392" cx="37.5" cy="37.5" r="37.5"></circle><path d="M34.438 41.766v.468c.234 1.172 0 2.11 2.343 3.047 3.75 1.64 4.453-1.172 4.688-1.406 0 0 7.734-31.64 7.5-31.875-.235 0-14.532 29.766-14.532 29.766zm-2.11 3.75c-3.516 2.109-3.281 5.625-3.281 8.672 0 3.28.234 6.328-2.813 8.671-.234.235-.234.47-.234.703.234.235.469.47.703.235 11.016-3.75 16.172-7.031 14.063-15.469h-.235c-1.64.703-4.453.234-6.328-.937-.937-.47-1.64-1.172-1.875-1.875z" fill="#FFFFFF" fill-rule="nonzero"></path></g></symbol></defs>
<use xlink:href="#arts"></use>
</svg>